<?xml version="1.0" standalone="no"?>
<!DOCTYPE svg PUBLIC "-//W3C//DTD SVG 20010904//EN"
 "http://www.w3.org/TR/2001/REC-SVG-20010904/DTD/svg10.dtd">
<svg version="1.0" xmlns="http://www.w3.org/2000/svg"
 width="1080.000000pt" height="1080.000000pt" viewBox="0 0 1080.000000 1080.000000"
 preserveAspectRatio="xMidYMid meet">

<g transform="translate(0.000000,1080.000000) scale(0.100000,-0.100000)"
fill="#000000" stroke="none">
<path d="M3605 10444 c-22 -9 -50 -18 -62 -21 -13 -3 -23 -9 -23 -14 0 -5 -6
-9 -14 -9 -21 0 -96 -83 -96 -107 0 -7 -4 -21 -9 -31 -29 -56 -38 -192 -27
-427 5 -109 -4 -232 -15 -213 -7 10 -11 10 -21 0 -22 -22 -31 -12 -25 31 5 42
5 42 -11 17 -10 -13 -45 -52 -80 -87 -60 -59 -70 -83 -36 -83 8 0 24 9 36 20
31 29 50 26 46 -7 -2 -19 2 -28 12 -28 14 0 33 -29 44 -68 5 -14 10 -16 26 -7
22 12 49 92 52 154 1 37 2 38 5 9 2 -18 8 -33 12 -33 5 0 16 -12 26 -26 13
-20 14 -28 5 -40 -7 -7 -9 -22 -5 -31 17 -41 23 -86 15 -114 -8 -26 -6 -29 14
-29 43 0 49 21 49 166 -1 74 3 134 8 134 5 0 9 -20 9 -45 0 -25 4 -45 8 -45 5
0 5 23 2 51 -6 48 -5 51 18 60 18 7 22 13 15 20 -7 7 -17 7 -31 -2 -32 -20
-40 -1 -10 24 14 12 30 36 36 52 5 17 14 39 18 50 7 19 7 19 -9 3 -10 -9 -20
-31 -23 -48 -4 -17 -11 -33 -17 -37 -17 -10 1 55 23 87 11 15 20 33 20 40 0 6
5 8 10 5 6 -3 11 0 11 7 3 28 5 34 24 75 11 23 26 43 34 43 10 0 12 9 8 34
l-5 33 38 -3 c22 -2 42 1 45 5 3 5 14 7 25 4 16 -4 20 0 20 17 0 19 2 20 15
10 14 -11 15 -4 10 61 -7 99 -14 127 -40 169 -36 58 -39 76 -14 110 14 18 32
30 46 30 13 0 23 4 23 10 0 10 -18 15 -90 25 -25 3 -58 8 -75 10 -16 3 -48 -2
-70 -11z"/>
<path d="M4390 10370 c0 -42 25 -94 41 -84 15 9 10 60 -8 93 -24 42 -33 39
-33 -9z"/>
<path d="M4590 10369 c-12 -23 -19 -43 -17 -46 3 -2 19 3 36 12 24 12 31 22
31 45 0 44 -26 38 -50 -11z"/>
<path d="M4507 10393 c-4 -3 -7 -20 -7 -38 0 -33 15 -55 37 -55 17 0 17 59 -1
83 -14 19 -19 20 -29 10z"/>
<path d="M4323 10299 c8 -11 34 -34 57 -51 42 -31 42 -31 35 -7 -10 33 -22 46
-58 64 -41 20 -51 19 -34 -6z"/>
<path d="M4543 10263 c-25 -5 -57 -37 -32 -32 7 1 26 -1 41 -5 32 -9 101 11
95 27 -4 12 -65 18 -104 10z"/>
<path d="M4530 10191 c0 -19 41 -89 55 -95 24 -9 25 -8 25 19 0 14 -3 25 -8
25 -4 0 -22 13 -40 29 -17 17 -32 26 -32 22z"/>
<path d="M4361 10172 c-13 -25 -22 -157 -9 -144 5 5 10 35 10 67 0 39 4 53 10
43 7 -9 8 -7 5 10 -6 26 9 30 16 5 3 -11 5 -7 6 10 1 31 -23 37 -38 9z"/>
<path d="M5145 10182 c-7 -7 18 -51 32 -56 8 -4 23 4 33 16 15 19 16 24 4 26
-8 2 -14 7 -14 10 0 7 -49 10 -55 4z"/>
<path d="M4649 10149 c22 -24 34 -29 50 -24 33 10 21 26 -30 41 -24 8 -45 14
-46 14 -1 0 11 -14 26 -31z"/>
<path d="M5090 10105 c0 -2 7 -20 16 -38 16 -32 15 -36 -7 -83 -34 -72 -34
-72 -5 -34 15 19 29 45 33 58 5 20 10 22 35 16 21 -4 33 -2 39 7 14 22 10 29
-15 29 -14 0 -38 11 -54 25 -29 24 -42 30 -42 20z"/>
<path d="M4373 10075 c-9 -24 1 -27 15 -5 8 13 8 20 2 20 -6 0 -13 -7 -17 -15z"/>
<path d="M4450 10069 c0 -6 10 -9 23 -6 12 3 31 2 42 -2 19 -8 19 -8 -4 -20
-20 -11 -27 -10 -52 8 -15 12 -36 21 -46 21 -14 0 -11 -6 12 -25 49 -40 129
-26 111 20 -6 18 -86 21 -86 4z"/>
<path d="M4253 10063 c-7 -2 -13 -9 -13 -15 0 -7 5 -7 13 1 8 6 18 7 22 3 5
-4 5 -1 1 6 -4 6 -8 12 -9 11 -1 0 -8 -3 -14 -6z"/>
<path d="M6420 10040 c0 -16 2 -30 4 -30 2 0 12 -3 21 -6 13 -5 15 -1 11 20
-10 53 -36 65 -36 16z"/>
<path d="M6480 10051 c-7 -13 -7 -28 0 -46 8 -22 13 -24 30 -15 22 12 25 31
10 61 -14 24 -26 24 -40 0z"/>
<path d="M4485 10050 c-3 -5 -1 -10 4 -10 6 0 11 5 11 10 0 6 -2 10 -4 10 -3
0 -8 -4 -11 -10z"/>
<path d="M6250 9991 c-12 -24 -13 -71 -2 -71 17 0 42 37 42 63 0 32 -24 36
-40 8z"/>
<path d="M4283 9978 c-21 -23 -5 -23 26 1 17 13 19 18 7 18 -9 0 -23 -9 -33
-19z"/>
<path d="M6380 9975 c0 -22 4 -25 40 -25 45 0 51 11 18 34 -34 24 -58 20 -58
-9z"/>
<path d="M6584 9988 c-4 -6 -10 -25 -14 -42 -6 -32 -4 -34 58 -67 25 -14 37
-7 29 16 -4 9 -19 15 -37 15 -28 0 -42 14 -21 22 5 2 12 15 16 29 5 19 2 28
-9 32 -8 3 -18 1 -22 -5z"/>
<path d="M4100 9970 c0 -5 4 -10 9 -10 6 0 13 5 16 10 3 6 -1 10 -9 10 -9 0
-16 -4 -16 -10z"/>
<path d="M6652 9964 c-27 -19 -28 -34 -3 -34 23 0 54 28 46 41 -8 13 -17 11
-43 -7z"/>
<path d="M4110 9931 c0 -6 4 -13 10 -16 6 -3 7 1 4 9 -7 18 -14 21 -14 7z"/>
<path d="M6308 9929 c-10 -5 -18 -17 -18 -24 0 -17 27 -20 49 -6 8 5 11 16 8
25 -7 18 -15 19 -39 5z"/>
<path d="M4382 9893 c2 -14 9 -28 17 -31 9 -3 11 2 6 17 -8 26 -5 26 40 1 40
-23 49 -25 39 -9 -5 9 -87 49 -100 49 -3 0 -4 -12 -2 -27z"/>
<path d="M6136 9897 c-30 -30 -34 -57 -8 -57 35 0 61 41 43 69 -7 11 -14 9
-35 -12z"/>
<path d="M6056 9891 c-13 -14 -15 -28 -10 -60 7 -42 11 -46 30 -33 13 9 18 99
5 106 -4 3 -16 -3 -25 -13z"/>
<path d="M4121 9874 c0 -11 3 -14 6 -6 3 7 2 16 -1 19 -3 4 -6 -2 -5 -13z"/>
<path d="M6420 9855 c-7 -8 -10 -21 -7 -29 8 -20 -3 -27 -24 -16 -22 12 -29 2
-18 -27 10 -29 49 -31 49 -4 0 12 7 18 18 17 13 -1 17 7 18 31 1 35 -18 50
-36 28z"/>
<path d="M6500 9845 c0 -12 7 -15 25 -13 14 2 26 8 26 13 0 6 -12 11 -26 13
-18 2 -25 -1 -25 -13z"/>
<path d="M6191 9831 c-17 -11 2 -51 25 -51 9 0 22 -7 31 -16 17 -17 64 -15 70
3 3 7 -10 15 -31 18 -24 5 -33 11 -29 21 4 10 -3 14 -22 14 -15 0 -24 4 -20
10 8 12 -5 13 -24 1z"/>
<path d="M6572 9803 c-10 -4 -9 -8 4 -17 9 -7 15 -19 12 -26 -3 -10 -10 -8
-26 8 -12 12 -26 22 -32 22 -14 0 -13 -33 2 -66 11 -23 10 -28 -10 -44 -12
-10 -28 -20 -35 -23 -22 -7 13 -37 44 -37 35 0 43 13 28 42 -6 13 -8 20 -5 16
11 -10 46 24 46 44 0 10 5 18 10 18 6 0 10 5 10 11 0 6 7 17 15 25 8 9 15 20
15 25 0 9 -56 11 -78 2z"/>
<path d="M3780 9766 c0 -9 5 -16 10 -16 6 0 10 4 10 9 0 6 -4 13 -10 16 -5 3
-10 -1 -10 -9z"/>
<path d="M6005 9770 c-19 -31 50 -55 75 -25 7 8 11 15 9 16 -11 2 -36 9 -55
14 -12 4 -25 2 -29 -5z"/>
<path d="M6104 9736 c-16 -41 17 -72 36 -36 9 16 8 25 -1 36 -15 18 -28 18
-35 0z"/>
<path d="M4370 9715 c-14 -11 -42 -29 -62 -40 -30 -15 -39 -16 -52 -6 -11 9
-20 10 -35 2 -11 -6 -29 -11 -40 -11 -12 0 -21 -5 -21 -10 0 -7 18 -8 50 -4
55 7 110 -9 110 -32 0 -18 -30 -17 -53 0 -23 17 -57 10 -79 -18 -15 -18 -19
-19 -28 -6 -7 10 -10 11 -10 2 0 -7 -16 -20 -35 -29 -19 -9 -35 -22 -35 -29 0
-12 -22 -24 -43 -24 -8 0 -7 3 2 9 9 6 4 10 -18 13 -21 3 -31 0 -31 -9 0 -7 5
-13 11 -13 5 0 8 -4 4 -10 -3 -5 -12 -7 -19 -4 -16 6 -112 -23 -141 -43 -11
-7 -29 -13 -40 -14 -11 0 -46 -10 -77 -22 -41 -16 -55 -26 -49 -35 10 -16 158
10 211 37 39 20 191 61 226 61 12 0 30 7 38 15 12 13 20 14 37 5 23 -13 189
-17 208 -6 15 10 53 -3 46 -15 -4 -5 1 -9 10 -9 9 0 13 5 10 10 -4 6 8 10 29
10 19 0 36 -5 38 -11 4 -12 88 31 121 61 19 18 57 29 106 31 l26 1 -25 8 c-14
4 -19 8 -12 9 10 1 10 5 -2 16 -8 9 -23 29 -33 46 -14 24 -23 29 -50 27 -21
-1 -40 5 -55 19 -39 35 -61 41 -138 40 -58 -1 -80 -6 -100 -22z m-214 -193
c-12 -11 -18 7 -10 30 l8 23 4 -23 c2 -13 1 -26 -2 -30z"/>
<path d="M6313 9718 c-28 -14 -37 -37 -17 -45 22 -8 60 15 61 38 2 21 -11 23
-44 7z"/>
<path d="M6411 9721 c-12 -8 -11 -13 10 -30 13 -11 27 -20 31 -21 12 0 38 31
38 46 0 16 -56 19 -79 5z"/>
<path d="M3813 9706 c1 -11 9 -21 17 -23 10 -3 11 -2 4 4 -6 4 -14 15 -17 23
-5 11 -6 9 -4 -4z"/>
<path d="M4993 9675 c-28 -20 -83 -75 -75 -75 3 0 -11 -9 -32 -20 -22 -10 -42
-17 -46 -15 -8 5 -104 -45 -98 -50 7 -7 57 8 52 16 -3 5 0 9 5 9 6 0 11 -4 11
-10 0 -5 7 -10 15 -10 8 0 15 4 15 8 0 4 15 9 33 10 17 1 37 9 43 17 12 17 29
21 19 5 -16 -25 41 -6 71 24 26 26 34 42 34 70 0 40 -12 45 -47 21z"/>
<path d="M6202 9655 c-17 -37 -15 -55 7 -55 24 0 36 32 21 60 -14 25 -14 25
-28 -5z"/>
<path d="M3820 9651 c0 -12 5 -21 10 -21 6 0 10 6 10 14 0 8 -4 18 -10 21 -5
3 -10 -3 -10 -14z"/>
<path d="M6075 9660 c-3 -5 2 -10 12 -11 12 0 13 -2 5 -6 -10 -4 -8 -11 9 -29
12 -13 26 -24 31 -24 17 0 7 37 -15 58 -26 25 -33 27 -42 12z"/>
<path d="M3770 9645 c11 -13 9 -20 -11 -41 -21 -22 -21 -24 -4 -18 11 4 28 14
38 22 16 14 16 16 1 34 -20 22 -42 25 -24 3z"/>
<path d="M4100 9643 c-8 -13 -13 -14 -16 -5 -3 6 -10 12 -16 12 -5 0 -8 -6 -6
-12 3 -8 23 -13 49 -13 42 -1 44 1 30 17 -19 22 -27 23 -41 1z"/>
<path d="M3111 9618 c-1 -41 3 -45 25 -24 18 19 18 40 0 33 -9 -4 -17 1 -19
11 -3 9 -5 0 -6 -20z"/>
<path d="M6443 9643 c-18 -7 -16 -49 3 -68 23 -23 40 -13 36 21 -4 33 -21 54
-39 47z"/>
<path d="M6038 9621 c-22 -22 -24 -61 -3 -61 8 0 16 3 16 8 3 13 7 72 6 71 -1
0 -10 -8 -19 -18z"/>
<path d="M6263 9611 c20 -54 90 -74 135 -38 17 14 -2 27 -40 27 -15 0 -42 9
-60 20 -44 26 -48 25 -35 -9z"/>
<path d="M6646 9614 c-9 -23 -8 -24 18 -24 31 0 53 25 30 34 -26 10 -42 7 -48
-10z"/>
<path d="M5302 9591 c13 -15 24 -27 26 -26 6 5 -23 45 -36 50 -7 3 -3 -8 10
-24z"/>
<path d="M6809 9582 c-9 -16 -31 -33 -50 -40 l-34 -12 37 6 c20 2 39 0 43 -6
3 -5 18 -10 32 -10 20 0 23 3 14 14 -6 7 -9 20 -5 29 3 8 0 18 -5 22 -6 3 -9
11 -6 16 4 5 3 9 -2 9 -4 0 -15 -13 -24 -28z"/>
<path d="M4080 9590 c0 -5 4 -10 9 -10 6 0 13 5 16 10 3 6 -1 10 -9 10 -9 0
-16 -4 -16 -10z"/>
<path d="M6545 9551 c3 -5 -4 -13 -16 -16 -15 -5 -18 -10 -10 -18 7 -7 14 -7
24 1 8 7 16 10 18 8 2 -3 15 4 29 14 l25 20 -38 0 c-21 0 -36 -4 -32 -9z"/>
<path d="M7358 9503 c7 -3 16 -2 19 1 4 3 -2 6 -13 5 -11 0 -14 -3 -6 -6z"/>
<path d="M5163 9465 c-40 -44 -44 -57 -24 -72 27 -21 77 -15 110 13 35 29 39
54 13 77 -30 27 -65 21 -99 -18z"/>
<path d="M3538 9460 c-3 -16 -1 -30 4 -30 4 0 8 6 8 14 0 8 3 21 6 30 3 9 2
16 -4 16 -5 0 -12 -13 -14 -30z"/>
<path d="M6660 9483 c-17 -6 -40 -32 -40 -45 0 -9 45 -10 78 -2 15 4 22 14 22
30 0 24 -22 31 -60 17z"/>
<path d="M3252 9446 c2 -19 5 -22 15 -15 6 6 9 17 6 25 -9 23 -23 16 -21 -10z"/>
<path d="M6995 9436 c-22 -13 -47 -21 -55 -19 -13 4 -13 3 -1 -5 9 -7 21 -7
31 -2 10 6 21 5 27 -1 10 -10 53 24 53 41 0 14 -10 12 -55 -14z"/>
<path d="M4975 9441 c-3 -6 11 -15 32 -20 52 -15 70 -14 77 4 4 10 -1 15 -14
15 -11 0 -20 -4 -20 -9 0 -5 -9 -7 -21 -4 -16 4 -17 8 -7 14 9 6 5 9 -14 9
-15 0 -29 -4 -33 -9z"/>
<path d="M6294 9439 c-3 -6 -2 -15 4 -21 6 -6 12 -6 16 1 4 6 1 11 -6 11 -9 0
-9 3 2 10 9 6 10 10 3 10 -6 0 -15 -5 -19 -11z"/>
<path d="M6452 9413 c2 -11 14 -19 31 -21 26 -3 27 -2 15 17 -16 26 -51 28
-46 4z"/>
<path d="M7135 9420 c3 -5 21 -10 38 -9 31 1 31 1 7 9 -36 11 -52 11 -45 0z"/>
<path d="M4764 9370 c17 -25 34 -47 37 -50 4 -3 10 -16 14 -30 16 -53 59 -77
84 -46 9 10 7 24 -8 59 -25 58 -72 100 -120 107 l-38 6 31 -46z"/>
<path d="M6660 9402 c0 -6 9 -12 20 -15 11 -3 20 -3 20 -1 0 2 -9 8 -20 14
-11 6 -20 7 -20 2z"/>
<path d="M6896 9321 c10 -40 10 -48 -4 -58 -9 -7 -12 -13 -8 -13 5 0 2 -8 -5
-17 -8 -9 -9 -14 -3 -10 7 4 14 -2 17 -13 7 -26 27 -25 73 2 l36 21 -23 18
c-13 10 -28 17 -34 16 -5 -1 -9 4 -7 12 5 21 -16 65 -36 78 -17 10 -18 8 -6
-36z m34 -98 c-8 -3 -18 -11 -22 -17 -5 -7 -8 -4 -8 7 0 11 7 17 23 16 15 0
17 -2 7 -6z"/>
<path d="M4166 9347 c11 -9 41 -24 65 -33 50 -20 59 -29 52 -55 -5 -19 12 -49
27 -49 4 0 10 16 13 36 4 20 17 46 33 60 35 33 26 39 -25 18 -40 -16 -44 -16
-94 4 -95 37 -95 37 -71 19z"/>
<path d="M7075 9346 c-16 -12 -17 -17 -8 -27 16 -16 67 5 60 24 -6 18 -30 20
-52 3z"/>
<path d="M7015 9340 c3 -5 11 -10 16 -10 6 0 7 5 4 10 -3 6 -11 10 -16 10 -6
0 -7 -4 -4 -10z"/>
<path d="M3061 9324 c0 -11 3 -14 6 -6 3 7 2 16 -1 19 -3 4 -6 -2 -5 -13z"/>
<path d="M5080 9284 c0 -2 13 -32 29 -66 39 -86 51 -125 51 -169 0 -49 18 -89
41 -89 24 0 31 25 23 94 -7 58 -19 85 -94 203 -12 18 -50 39 -50 27z"/>
<path d="M4408 9259 c-10 -5 -18 -16 -18 -23 0 -13 38 -52 44 -45 4 6 36 71
36 76 0 7 -46 2 -62 -8z"/>
<path d="M7043 9188 c3 -71 12 -92 28 -68 10 17 3 60 -17 105 -13 29 -14 27
-11 -37z"/>
<path d="M3968 9223 c6 -2 18 -2 25 0 6 3 1 5 -13 5 -14 0 -19 -2 -12 -5z"/>
<path d="M2981 9190 c0 -14 3 -31 8 -39 7 -11 13 -9 30 8 l21 21 0 -49 c0 -35
-4 -51 -16 -55 -8 -3 -12 -11 -8 -17 4 -8 11 -7 20 3 16 15 32 148 19 148 -5
0 -19 -10 -32 -22 l-23 -21 -9 24 -10 24 0 -25z"/>
<path d="M3823 9203 c-13 -2 -23 -8 -23 -13 0 -10 108 -25 117 -16 4 3 -1 6
-9 6 -9 0 -21 7 -28 15 -13 15 -17 16 -57 8z"/>
<path d="M2725 9150 c-28 -10 -75 -41 -107 -69 -36 -33 -58 -46 -61 -38 -3 7
-6 5 -6 -5 -2 -31 16 -28 95 17 43 25 93 48 111 51 37 7 58 27 49 49 -7 19
-18 18 -81 -5z"/>
<path d="M3272 9154 c-12 -8 -22 -24 -22 -36 0 -17 4 -19 25 -14 39 10 30 -13
-11 -30 -20 -8 -51 -14 -68 -12 -17 2 -32 -1 -34 -7 -8 -30 157 -5 177 27 10
16 8 20 -19 29 -16 6 -30 15 -30 21 0 5 -4 6 -10 3 -5 -3 -10 -1 -10 4 0 6 9
11 19 11 11 0 23 5 26 10 10 15 -18 12 -43 -6z"/>
<path d="M2372 9118 c-19 -19 -14 -36 17 -54 17 -10 28 -20 26 -23 -2 -3 8 -7
21 -7 18 -2 26 4 31 24 11 45 -63 92 -95 60z"/>
<path d="M3398 9113 c7 -3 16 -2 19 1 4 3 -2 6 -13 5 -11 0 -14 -3 -6 -6z"/>
<path d="M3750 9101 c0 -21 48 -61 74 -61 9 0 16 -7 16 -15 0 -11 -11 -15 -40
-15 -22 0 -40 -4 -40 -10 0 -6 -10 -5 -25 2 -28 13 -40 6 -31 -17 4 -11 13
-14 30 -9 14 3 33 1 43 -5 17 -10 17 -10 1 -11 -11 0 -18 -8 -18 -20 0 -14 -7
-20 -23 -20 -31 0 -38 -9 -26 -31 8 -16 22 -19 84 -19 64 0 82 4 139 34 36 19
74 37 84 39 12 3 11 5 -6 6 -13 0 -32 -4 -44 -10 -11 -6 -23 -7 -26 -3 -4 4
-1 9 6 11 10 4 8 9 -7 20 -34 23 -25 35 24 31 55 -4 55 13 -1 27 -21 5 -42 14
-46 21 -4 6 -22 17 -40 24 -18 8 -45 22 -60 32 -35 24 -68 24 -68 -1z"/>
<path d="M6751 9084 c0 -11 3 -14 6 -6 3 7 2 16 -1 19 -3 4 -6 -2 -5 -13z"/>
<path d="M7172 9063 c-19 -9 -31 -21 -28 -29 3 -7 -3 -15 -12 -17 -11 -3 -8
-5 8 -6 53 -2 133 31 115 47 -20 19 -51 21 -83 5z"/>
<path d="M2448 8973 c-10 -11 -13 -25 -9 -37 9 -23 20 -10 27 29 5 30 2 31
-18 8z"/>
<path d="M3096 8974 c-9 -8 -16 -21 -16 -27 0 -7 5 -6 11 3 6 9 12 11 15 4 2
-6 18 -8 34 -6 32 5 52 22 26 22 -9 0 -16 5 -16 10 0 16 -37 12 -54 -6z"/>
<path d="M7218 8973 c-69 -29 -50 -68 21 -43 44 15 61 28 61 46 0 18 -34 16
-82 -3z"/>
<path d="M2240 8941 c10 -19 45 -43 83 -57 9 -3 17 -14 17 -23 0 -21 35 -73
43 -64 4 3 7 -2 7 -12 0 -10 3 -16 6 -13 5 6 -2 30 -36 126 -14 37 -54 62
-100 62 -27 0 -30 -2 -20 -19z"/>
<path d="M3072 8910 c0 -14 2 -19 5 -12 2 6 2 18 0 25 -3 6 -5 1 -5 -13z"/>
<path d="M3184 8919 c-3 -6 -1 -16 5 -22 8 -8 11 -5 11 11 0 24 -5 28 -16 11z"/>
<path d="M6979 8893 c-38 -6 -63 -36 -55 -68 4 -14 12 -25 20 -25 23 0 66 48
66 75 0 14 -1 24 -2 24 -2 -1 -15 -4 -29 -6z"/>
<path d="M2558 8862 c-26 -15 -53 -38 -60 -52 -7 -14 -17 -28 -22 -31 -5 -4
-5 -12 -1 -19 4 -7 10 -8 14 -3 3 5 38 25 76 45 69 36 90 62 63 79 -18 12 -17
12 -70 -19z"/>
<path d="M2441 8864 c0 -11 3 -14 6 -6 3 7 2 16 -1 19 -3 4 -6 -2 -5 -13z"/>
<path d="M3167 8844 c-10 -19 -21 -33 -26 -30 -5 3 -11 0 -14 -8 -12 -32 36
-1 50 32 19 46 11 51 -10 6z"/>
<path d="M7136 8845 c-23 -18 -15 -42 20 -55 42 -16 64 -4 64 36 0 32 -2 34
-32 34 -18 0 -41 -7 -52 -15z"/>
<path d="M3094 8835 c3 -9 0 -15 -9 -15 -8 0 -15 -4 -15 -10 0 -11 11 -13 33
-4 16 6 12 44 -5 44 -6 0 -8 -7 -4 -15z"/>
<path d="M2320 8819 c7 -11 14 -18 17 -15 8 8 -5 36 -17 36 -7 0 -7 -6 0 -21z"/>
<path d="M3595 8819 c-9 -14 -2 -20 14 -10 8 6 9 11 3 15 -6 3 -14 1 -17 -5z"/>
<path d="M4032 8780 c-7 -12 -17 -41 -21 -66 l-9 -45 22 18 c32 27 36 35 36
76 0 41 -9 47 -28 17z"/>
<path d="M3747 8740 c-9 -11 -13 -20 -7 -20 5 0 14 9 20 20 6 11 9 20 8 20 -2
0 -11 -9 -21 -20z"/>
<path d="M4130 8749 c-28 -11 -60 -38 -60 -51 0 -12 38 -10 63 3 23 12 57 44
57 54 0 8 -32 5 -60 -6z"/>
<path d="M3590 8710 c-13 -8 -12 -10 3 -10 9 0 17 5 17 10 0 12 -1 12 -20 0z"/>
<path d="M3900 8700 c8 -5 23 -7 34 -4 12 4 16 2 12 -5 -4 -6 -15 -11 -24 -12
-10 0 -12 -3 -5 -5 15 -6 53 13 53 26 0 6 -19 10 -42 10 -31 0 -39 -3 -28 -10z"/>
<path d="M2690 8681 c-68 -16 -131 -40 -105 -41 15 0 197 49 203 55 8 8 -18 4
-98 -14z"/>
<path d="M3705 8690 c-17 -6 -15 -8 10 -13 35 -6 40 -4 23 10 -7 6 -22 7 -33
3z"/>
<path d="M3839 8688 c-8 -29 -5 -38 14 -38 12 0 29 5 37 11 12 9 12 10 -3 5
-26 -9 -46 5 -21 15 17 7 17 8 -3 8 -13 1 -23 0 -24 -1z"/>
<path d="M3390 8648 c-16 -34 11 -94 46 -102 15 -4 31 -3 37 3 12 12 36 -14
37 -40 0 -8 6 -23 13 -33 11 -15 17 -17 35 -7 12 6 22 16 22 22 0 6 -7 3 -16
-5 -24 -24 -28 -20 -42 36 -14 60 -4 82 27 54 10 -9 22 -16 27 -15 20 3 24 -2
14 -21 -7 -14 -7 -20 0 -20 16 0 16 76 -1 96 -19 24 -98 -3 -100 -34 0 -9 -8
6 -17 33 -14 42 -21 51 -44 53 -21 3 -30 -2 -38 -20z m31 -38 c5 0 9 -8 10
-17 1 -12 4 -9 9 7 l7 25 8 -28 c12 -43 -8 -54 -34 -19 -11 17 -20 38 -20 49
1 16 2 16 6 1 2 -10 9 -18 14 -18z"/>
<path d="M3798 8663 c7 -3 16 -2 19 1 4 3 -2 6 -13 5 -11 0 -14 -3 -6 -6z"/>
<path d="M3958 8653 c7 -3 16 -2 19 1 4 3 -2 6 -13 5 -11 0 -14 -3 -6 -6z"/>
<path d="M4140 8631 c-7 -14 -7 -22 0 -26 18 -11 65 5 78 25 11 19 9 20 -28
20 -29 0 -42 -5 -50 -19z"/>
<path d="M3850 8596 c0 -25 7 -40 26 -55 33 -26 54 -27 54 -3 0 22 -17 48 -26
39 -4 -3 -1 -13 6 -22 20 -24 8 -26 -20 -3 -14 11 -20 17 -14 14 20 -10 26 26
8 45 -25 28 -34 23 -34 -15z"/>
<path d="M4070 8594 c0 -29 46 -94 66 -94 8 0 14 7 14 15 0 20 -40 80 -62 94
-16 10 -18 8 -18 -15z"/>
<path d="M3696 8567 c-20 -20 -26 -36 -26 -72 0 -25 5 -45 10 -45 6 0 8 12 4
28 -4 21 -3 24 6 12 8 -12 9 -6 4 24 -5 28 -4 37 5 32 6 -4 11 -1 11 9 0 9 5
13 10 10 14 -9 13 -85 -2 -85 -6 0 -9 -2 -6 -5 3 -3 13 -3 22 1 13 5 15 15 10
48 -11 67 -18 73 -48 43z"/>
<path d="M4003 8548 c-35 -43 -42 -68 -18 -68 18 0 41 35 49 78 3 17 4 32 3
31 -1 0 -17 -18 -34 -41z"/>
<path d="M4186 8583 c-12 -12 27 -43 55 -43 34 0 46 16 22 28 -28 14 -69 22
-77 15z"/>
<path d="M1936 8535 c-11 -8 -26 -15 -34 -15 -8 0 -28 -14 -44 -30 -21 -23
-27 -36 -22 -55 4 -15 2 -25 -5 -25 -6 0 -8 -6 -5 -14 6 -17 -22 -76 -36 -76
-6 0 -10 -12 -10 -27 l0 -28 18 23 c18 23 52 22 52 -1 0 -6 -3 -7 -7 -4 -8 9
-36 -30 -29 -42 3 -4 1 -23 -5 -42 -13 -41 -15 -56 -23 -139 -6 -64 -6 -64 8
-29 8 20 22 72 32 115 22 102 57 179 88 196 9 5 16 14 16 19 0 16 27 39 35 31
5 -4 5 -2 1 5 -3 6 -2 14 4 18 9 5 17 32 34 108 6 24 4 27 -21 27 -16 0 -37
-7 -47 -15z m-89 -167 c-3 -8 -6 -5 -6 6 -1 11 2 17 5 13 3 -3 4 -12 1 -19z
m-9 -43 c-3 -3 -9 2 -12 12 -6 14 -5 15 5 6 7 -7 10 -15 7 -18z"/>
<path d="M1349 8468 c-44 -58 -48 -72 -49 -151 0 -79 25 -157 51 -157 6 0 8
-7 5 -16 -3 -8 -2 -12 4 -9 6 3 10 0 10 -7 0 -8 19 -29 42 -48 23 -19 62 -52
86 -73 56 -48 95 -68 146 -74 22 -2 43 -8 46 -12 3 -5 16 -12 30 -16 14 -4 35
-17 48 -28 18 -17 22 -18 22 -4 0 20 -91 114 -116 119 -14 2 -18 10 -16 28 3
20 1 22 -10 12 -18 -14 -29 -6 -21 15 4 11 2 14 -8 11 -16 -5 -79 111 -79 148
0 15 -6 24 -16 24 -8 0 -13 4 -9 10 3 5 13 7 23 4 10 -4 13 -3 6 3 -6 4 -14
21 -18 37 l-7 30 21 -25 21 -24 -15 30 c-20 42 -74 90 -118 106 -37 13 -39 16
-43 71 -1 30 -11 29 -36 -4z"/>
<path d="M4045 8471 c-13 -27 -13 -31 1 -45 22 -23 23 -21 22 29 0 25 -2 45
-4 45 -2 0 -10 -13 -19 -29z"/>
<path d="M2933 8418 l-32 -11 24 -19 c24 -19 51 -16 39 4 -4 6 2 8 17 4 l24
-7 -23 14 c-12 7 -19 16 -16 20 8 8 9 8 -33 -5z m21 -23 c-4 -8 -10 -12 -15
-9 -14 8 -10 24 6 24 9 0 12 -6 9 -15z"/>
<path d="M2583 8404 c-7 -7 -9 -15 -4 -18 5 -3 14 1 20 8 15 18 0 28 -16 10z"/>
<path d="M2537 8350 l-27 -26 61 -2 c43 -2 58 1 54 9 -5 6 -20 8 -41 4 -35 -6
-43 2 -22 23 24 24 2 17 -25 -8z"/>
<path d="M1791 8224 c0 -11 3 -14 6 -6 3 7 2 16 -1 19 -3 4 -6 -2 -5 -13z"/>
<path d="M2610 7980 c-23 -23 -26 -40 -7 -40 18 0 43 21 50 43 9 24 -18 22
-43 -3z"/>
<path d="M2655 7936 c-17 -12 -17 -13 9 -20 27 -7 66 7 66 24 0 15 -53 12 -75
-4z"/>
<path d="M2557 7895 c6 -18 54 -45 78 -45 25 0 17 19 -17 40 -40 24 -70 26
-61 5z"/>
<path d="M2370 7863 c-8 -4 -21 -12 -28 -20 -11 -11 -11 -13 2 -13 9 0 16 5
16 11 0 5 4 8 9 5 5 -3 14 1 21 9 13 15 6 18 -20 8z"/>
<path d="M2527 7841 c-10 -49 -9 -61 7 -61 23 0 27 15 13 56 l-14 38 -6 -33z"/>
<path d="M2120 7835 c0 -8 2 -15 4 -15 2 0 6 7 10 15 3 8 1 15 -4 15 -6 0 -10
-7 -10 -15z"/>
<path d="M2390 7821 c0 -15 41 -51 59 -51 9 0 22 4 30 9 11 7 9 12 -10 24 -33
21 -79 32 -79 18z m60 -21 c8 -5 11 -12 7 -16 -4 -4 -15 0 -24 9 -18 18 -8 23
17 7z"/>
<path d="M2260 7808 c0 -11 12 -10 30 2 12 7 10 9 -8 7 -12 0 -22 -5 -22 -9z"/>
<path d="M2591 7792 c-1 -21 5 -35 14 -39 24 -8 30 5 13 24 -9 10 -18 25 -21
33 -3 8 -6 0 -6 -18z"/>
<path d="M1951 7794 c0 -11 3 -14 6 -6 3 7 2 16 -1 19 -3 4 -6 -2 -5 -13z"/>
<path d="M2105 7770 c-3 -5 -1 -10 4 -10 6 0 11 5 11 10 0 6 -2 10 -4 10 -3 0
-8 -4 -11 -10z"/>
<path d="M2307 7726 c-8 -20 9 -77 25 -88 24 -15 31 -8 13 12 -11 12 -19 36
-19 55 0 36 -10 46 -19 21z"/>
<path d="M2330 7710 c0 -5 5 -10 11 -10 6 0 8 -7 5 -16 -3 -8 -2 -12 4 -9 6 3
10 -2 11 -12 0 -12 2 -14 6 -5 3 8 0 25 -8 38 -13 24 -29 32 -29 14z"/>
<path d="M1731 7690 c-34 -8 -51 -70 -19 -70 5 0 6 5 3 11 -7 11 31 49 50 49
6 0 16 -5 22 -11 6 -6 13 -7 16 -2 8 13 -44 30 -72 23z"/>
<path d="M2200 7690 c0 -6 -6 -10 -14 -10 -18 0 -29 -30 -20 -56 3 -11 2 -15
-3 -8 -27 35 -93 45 -93 14 0 -11 7 -20 15 -20 8 0 15 5 15 10 0 6 -5 10 -12
10 -6 0 -9 3 -5 6 3 4 22 -3 42 -15 20 -11 44 -21 54 -21 10 0 30 -10 45 -21
22 -17 30 -19 39 -9 9 10 9 12 -3 8 -8 -2 -27 7 -42 20 -30 27 -38 55 -13 46
8 -4 15 -1 15 6 0 7 7 10 15 6 12 -4 13 -2 6 13 -12 21 -41 36 -41 21z"/>
<path d="M1810 7628 c0 -9 5 -20 11 -23 17 -11 18 -2 3 19 -12 17 -14 17 -14
4z"/>
<path d="M2091 7601 c-11 -7 -10 -11 7 -20 29 -15 52 -14 52 4 0 8 -5 15 -11
15 -5 0 -7 -5 -3 -11 4 -7 1 -10 -7 -7 -8 3 -13 11 -11 17 2 13 -8 14 -27 2z"/>
<path d="M1803 7576 c-13 -6 -23 -20 -23 -31 1 -19 1 -19 15 -2 7 10 22 25 32
32 21 17 8 17 -24 1z"/>
<path d="M2160 7579 c0 -5 5 -7 10 -4 6 3 10 8 10 11 0 2 -4 4 -10 4 -5 0 -10
-5 -10 -11z"/>
<path d="M1668 7523 c-25 -6 -31 -38 -15 -75 8 -18 17 -41 21 -50 8 -26 43
-22 62 7 18 28 12 79 -14 108 -15 17 -22 19 -54 10z"/>
<path d="M1420 7407 c0 -18 7 -43 16 -55 9 -14 14 -36 12 -52 -3 -22 -1 -27 7
-20 9 8 11 4 7 -15 -2 -14 -8 -28 -13 -31 -5 -3 -9 -14 -9 -25 0 -11 4 -17 10
-14 6 4 8 -7 5 -27 -3 -18 -2 -26 1 -18 3 8 12 29 19 46 8 16 12 40 8 52 -3
14 -1 22 7 22 7 0 9 8 5 20 -4 11 -2 20 4 20 30 0 -2 87 -41 114 -32 23 -38
20 -38 -17z"/>
<path d="M1645 7350 c-3 -5 -1 -10 4 -10 6 0 11 -5 11 -11 0 -6 -7 -8 -15 -5
-11 4 -19 -3 -26 -21 -14 -39 -2 -41 31 -6 18 19 28 38 24 47 -7 18 -20 21
-29 6z"/>
<path d="M1843 7311 c-78 -13 -73 -28 13 -37 72 -7 175 -31 188 -44 13 -13 63
-13 71 0 16 25 -8 49 -67 69 -62 21 -126 25 -205 12z"/>
<path d="M3220 7254 c-158 -54 -384 -215 -580 -413 -184 -185 -239 -256 -343
-438 -87 -152 -137 -281 -147 -383 -14 -132 -14 -231 -1 -279 36 -128 158
-221 291 -221 73 0 102 14 98 48 -3 26 -5 27 -83 33 -90 6 -128 22 -174 74
-48 55 -63 100 -68 205 -6 110 13 197 71 329 54 124 174 314 271 431 176 213
472 452 652 526 78 32 143 32 180 0 26 -22 28 -30 26 -88 -2 -82 -38 -210
-119 -416 -69 -177 -147 -378 -194 -502 -72 -189 -243 -689 -296 -870 -43
-145 -111 -391 -128 -470 -10 -41 -24 -102 -31 -135 -53 -232 -66 -470 -32
-555 28 -68 63 -100 110 -100 74 0 126 37 241 175 36 44 76 91 88 105 32 38
208 303 275 415 70 116 161 273 193 330 67 121 90 161 155 271 40 66 75 130
79 141 4 12 14 27 23 35 14 11 16 10 11 -12 -3 -14 -20 -65 -38 -115 -55 -155
-150 -477 -171 -583 -15 -69 -3 -154 27 -199 37 -57 130 -65 224 -20 60 28
237 206 331 332 82 111 217 312 301 450 124 204 123 197 39 189 -73 -8 -124 8
-152 47 -11 16 -34 82 -49 147 -206 838 -200 806 -146 857 31 29 54 37 213 74
228 54 281 70 320 95 46 30 56 61 48 153 -10 115 -4 119 213 172 94 22 187 41
207 41 45 0 64 -22 90 -102 15 -48 28 -68 54 -85 55 -37 95 -32 455 57 101 25
148 26 170 1 16 -18 47 -132 140 -521 26 -107 54 -222 62 -254 8 -32 12 -61 9
-64 -3 -3 -23 0 -46 7 -57 17 -132 16 -170 -3 -42 -21 -52 -20 -44 3 7 24 -2
30 -71 46 -59 13 -68 9 -76 -35 -9 -46 -108 -475 -117 -507 -6 -21 -6 -35 1
-39 20 -13 132 -34 138 -27 4 4 22 76 40 158 41 184 53 221 85 251 28 26 82
39 120 30 14 -4 39 -19 56 -34 27 -24 31 -35 31 -77 0 -28 -16 -122 -37 -210
-20 -88 -38 -164 -39 -169 -1 -9 106 -46 136 -46 12 0 20 18 33 73 9 39 27
118 41 174 44 183 44 251 0 316 -13 19 -34 77 -46 128 -55 240 -183 765 -190
783 -4 12 -21 34 -36 50 -27 26 -33 28 -89 23 -33 -3 -145 -26 -248 -51 -104
-25 -208 -46 -231 -46 -55 0 -80 24 -101 96 -23 80 -59 114 -121 114 -55 0
-368 -75 -401 -96 -47 -30 -58 -62 -58 -163 l0 -95 -32 -22 c-18 -12 -65 -29
-105 -39 -40 -9 -131 -30 -202 -46 -151 -35 -212 -60 -245 -100 -33 -43 -37
-100 -12 -205 109 -465 183 -764 195 -789 24 -53 66 -94 107 -105 21 -6 39
-15 39 -20 0 -34 -283 -456 -421 -626 -44 -55 -169 -174 -209 -199 -22 -14
-60 -28 -84 -31 l-45 -7 -11 44 c-9 33 -9 57 0 102 12 64 112 397 161 542 118
342 169 500 169 519 0 55 -61 62 -107 14 -17 -18 -61 -82 -98 -143 -38 -60
-78 -126 -90 -145 -12 -19 -50 -84 -85 -145 -35 -60 -90 -154 -122 -208 -32
-54 -58 -100 -58 -103 0 -2 -19 -37 -43 -77 -24 -39 -65 -110 -92 -157 -55
-97 -65 -114 -166 -270 -187 -290 -358 -491 -404 -474 -7 3 -21 22 -31 42 -87
179 169 1145 596 2247 172 443 200 537 200 661 0 65 -4 84 -25 121 -46 77
-138 98 -255 57z"/>
<path d="M2295 7206 l-30 -13 27 1 c16 0 28 4 28 8 0 3 8 9 18 11 12 3 12 5 2
5 -8 1 -28 -5 -45 -12z"/>
<path d="M2240 7165 c0 -8 5 -15 10 -15 6 0 10 7 10 15 0 8 -4 15 -10 15 -5 0
-10 -7 -10 -15z"/>
<path d="M2198 7163 c-10 -2 -18 -7 -18 -10 0 -9 34 -32 48 -33 6 0 12 5 12
10 0 6 -7 10 -15 10 -18 0 -20 16 -2 23 15 7 -2 6 -25 0z"/>
<path d="M1605 7138 c-38 -13 -68 -39 -57 -50 4 -4 35 -8 69 -9 73 -2 97 -13
71 -33 -25 -18 -22 -29 3 -16 25 14 36 6 21 -13 -18 -21 -112 -70 -112 -58 0
6 -7 11 -15 11 -9 0 -12 -6 -8 -16 5 -13 15 -15 51 -10 25 3 53 13 62 21 9 8
24 15 32 15 9 0 21 14 27 30 9 26 8 30 -8 30 -30 0 -32 12 -6 32 28 21 32 40
13 55 -20 16 -110 23 -143 11z"/>
<path d="M2250 7130 c0 -5 12 -10 28 -10 21 0 24 2 12 10 -20 13 -40 13 -40 0z"/>
<path d="M1486 7075 c-3 -9 -6 -18 -6 -19 0 -8 51 8 57 17 4 7 0 8 -12 3 -10
-4 -21 -2 -25 4 -5 8 -9 6 -14 -5z"/>
<path d="M1865 7074 c-20 -15 -20 -16 4 -12 14 2 26 9 29 16 5 16 -9 15 -33
-4z"/>
<path d="M2040 7080 c0 -5 5 -10 10 -10 6 0 10 5 10 10 0 6 -4 10 -10 10 -5 0
-10 -4 -10 -10z"/>
<path d="M2143 7043 c-10 -25 18 -65 60 -87 48 -25 47 -42 -3 -50 -22 -3 -40
-11 -40 -16 0 -6 -10 -5 -25 2 -29 13 -40 6 -31 -18 4 -12 15 -15 36 -12 35 5
64 -17 36 -28 -11 -4 -15 -13 -11 -25 4 -11 3 -18 -2 -17 -12 3 -53 -25 -53
-38 0 -6 9 -19 20 -29 17 -15 31 -17 87 -12 72 7 111 27 173 90 19 19 44 37
55 40 19 4 19 5 -2 6 -12 0 -28 -6 -37 -14 -21 -22 -35 -19 -46 10 -5 14 -17
28 -25 31 -8 4 -15 12 -15 19 0 15 74 29 78 15 4 -11 22 -3 22 10 0 12 -88 53
-99 46 -5 -4 -13 0 -18 7 -4 7 -24 19 -43 27 -19 7 -39 18 -45 25 -10 12 -49
35 -60 35 -3 0 -8 -7 -12 -17z"/>
<path d="M1796 7041 c-3 -4 6 -6 19 -3 14 2 25 6 25 8 0 8 -39 4 -44 -5z"/>
<path d="M2670 7019 c0 -5 5 -7 10 -4 6 3 10 8 10 11 0 2 -4 4 -10 4 -5 0 -10
-5 -10 -11z"/>
<path d="M4884 6611 c-139 -36 -262 -163 -300 -311 -50 -198 47 -400 236 -489
70 -33 82 -35 175 -36 143 0 206 25 298 117 38 38 67 74 64 81 -2 6 -41 20
-86 30 l-83 19 -26 -25 c-71 -68 -187 -86 -278 -43 -79 37 -128 112 -140 218
-11 98 57 222 150 270 59 31 155 31 215 0 55 -29 105 -85 122 -134 10 -31 19
-40 48 -48 76 -20 134 -30 139 -25 9 8 -19 117 -41 160 -33 66 -143 167 -212
194 -64 26 -220 38 -281 22z"/>
<path d="M896 6512 c-4 -8 -17 -12 -27 -9 -12 3 -19 0 -19 -9 0 -8 -9 -14 -21
-14 -34 0 -18 -33 24 -49 48 -18 59 -8 55 50 -2 29 -6 39 -12 31z"/>
<path d="M5555 6480 c-4 -7 -13 -36 -20 -67 -12 -52 -12 -55 9 -63 39 -15 117
-33 122 -27 8 8 33 120 28 128 -2 4 -25 12 -51 18 -27 7 -55 14 -65 17 -9 3
-19 0 -23 -6z"/>
<path d="M975 6370 c-18 -20 -69 -40 -95 -38 -65 5 -65 -13 0 -36 47 -17 53
-23 85 -87 19 -38 35 -71 35 -74 0 -2 -21 -16 -48 -29 -33 -17 -57 -40 -82
-77 -30 -46 -35 -62 -34 -109 3 -117 10 -140 73 -248 47 -81 66 -103 110 -128
42 -24 84 -62 100 -91 13 -26 31 -30 31 -8 0 17 -38 93 -51 101 -5 3 -9 14 -9
25 0 10 -6 19 -14 19 -10 0 -12 7 -8 22 3 14 2 19 -6 14 -8 -5 -12 0 -12 13 0
10 -4 21 -9 23 -9 3 -16 95 -12 153 2 26 3 27 11 10 7 -17 9 -17 9 -2 1 9 6
17 13 17 6 0 3 7 -8 15 -11 8 -14 15 -6 15 6 0 12 10 13 23 0 21 1 21 9 2 7
-15 9 -16 9 -4 2 28 -37 103 -67 132 -27 26 -29 31 -19 58 11 27 13 28 24 12
22 -30 14 4 -22 94 -19 48 -35 92 -35 99 0 6 11 19 25 28 15 10 25 26 25 41 0
32 -14 39 -35 15z"/>
<path d="M5506 6272 c-6 -9 -13 -41 -72 -297 -14 -60 -34 -147 -45 -193 -11
-46 -17 -87 -14 -91 5 -9 133 -36 139 -30 2 2 15 56 30 119 15 63 31 133 36
155 39 162 70 297 70 305 0 17 -134 47 -144 32z"/>
<path d="M850 6106 c0 -2 9 -6 20 -9 11 -3 18 -1 14 4 -5 9 -34 13 -34 5z"/>
<path d="M6480 6034 c-96 -34 -187 -129 -211 -218 -6 -23 -9 -78 -7 -122 4
-71 8 -88 37 -132 67 -104 147 -153 263 -160 70 -4 82 -2 140 26 62 29 138 90
138 110 0 12 -9 15 -92 33 -52 11 -58 10 -83 -9 -82 -65 -232 -10 -255 93 -11
48 -3 58 36 46 16 -5 61 -16 99 -25 39 -8 127 -29 196 -46 70 -16 129 -30 132
-30 13 0 29 118 23 169 -13 105 -71 190 -167 241 -77 41 -176 50 -249 24z
m188 -141 c18 -9 41 -28 52 -43 24 -34 37 -90 22 -90 -26 0 -288 62 -296 70
-14 13 21 49 69 71 44 21 96 18 153 -8z"/>
<path d="M1440 5907 c-34 -16 -135 -119 -132 -134 2 -7 -2 -13 -9 -13 -8 0 -9
-3 0 -13 8 -11 6 -18 -10 -32 -24 -23 -93 -123 -102 -150 -4 -11 17 7 47 40
30 33 53 61 51 63 -8 8 93 89 126 101 19 7 48 20 66 27 17 8 36 14 42 14 6 0
11 4 11 9 0 5 14 24 31 41 17 17 30 32 28 33 -2 1 -13 7 -25 14 -12 6 -27 8
-34 3 -8 -5 -22 -4 -31 1 -21 11 -27 11 -59 -4z m-60 -76 c0 -6 -4 -13 -10
-16 -5 -3 -10 1 -10 9 0 9 5 16 10 16 6 0 10 -4 10 -9z"/>
<path d="M1935 5639 c-4 -6 -5 -12 -2 -15 2 -3 7 2 10 11 7 17 1 20 -8 4z"/>
<path d="M1586 5531 c-19 -21 -8 -35 18 -25 18 7 19 13 8 32 -7 10 -13 8 -26
-7z"/>
<path d="M1668 5451 c-99 -29 -117 -41 -93 -61 13 -10 24 -11 56 -1 39 12 65
7 43 -7 -19 -12 -27 -52 -12 -57 18 -7 17 -47 -1 -69 -13 -15 -13 -19 0 -27 8
-5 18 -9 23 -9 20 0 118 112 136 156 26 59 25 76 -1 44 l-21 -25 6 25 5 25
-18 -22 c-18 -22 -19 -22 -24 -3 -3 11 -2 20 2 20 4 0 7 9 7 20 0 24 0 24
-108 -9z"/>
<path d="M1607 5313 c-4 -3 -7 -12 -7 -19 0 -11 5 -11 25 -2 13 6 22 15 19 19
-6 11 -28 12 -37 2z"/>
<path d="M4980 5303 c54 -6 65 -12 52 -25 -7 -7 -12 -28 -12 -47 0 -20 -3 -52
-6 -72 l-6 -36 -68 -5 c-123 -9 -180 -72 -180 -197 0 -99 33 -141 111 -141 38
0 68 15 96 49 12 14 22 21 23 14 0 -6 12 -25 26 -42 23 -27 32 -31 78 -31 39
0 57 5 70 19 20 22 34 91 18 91 -6 0 -12 -17 -14 -37 -2 -20 -9 -38 -17 -41
-14 -5 -11 114 11 355 6 67 8 129 5 137 -5 13 -25 16 -114 14 -59 0 -92 -3
-73 -5z m21 -205 c3 -53 -4 -169 -11 -198 -11 -40 -43 -80 -65 -80 -17 0 -19
63 -6 189 5 55 12 77 26 87 23 17 55 18 56 2z"/>
<path d="M5440 5279 c0 -5 19 -9 41 -9 38 0 41 -2 35 -22 -3 -13 -9 -43 -12
-68 -10 -83 -14 -92 -33 -87 -33 8 -123 -12 -157 -35 -18 -13 -41 -41 -51 -63
-23 -51 -23 -161 1 -197 36 -55 120 -61 173 -12 22 21 24 24 8 19 -11 -4 -24
-7 -30 -8 -26 -5 -10 257 17 274 7 5 23 9 36 9 21 0 22 -4 22 -67 0 -38 -7
-95 -14 -128 -9 -35 -11 -61 -5 -63 5 -2 9 -10 9 -17 0 -7 14 -25 31 -39 34
-29 102 -36 133 -13 22 16 41 96 26 111 -11 11 -12 7 -14 -48 0 -16 -7 -31
-14 -34 -11 -3 -12 23 -8 139 3 79 11 188 18 242 7 59 8 101 2 106 -13 12
-214 21 -214 10z"/>
<path d="M5812 5274 c-34 -24 -45 -50 -31 -76 28 -53 76 -63 108 -22 27 35 26
59 -4 89 -28 29 -42 31 -73 9z"/>
<path d="M990 5232 c0 -34 -18 -52 -31 -31 -7 12 -9 12 -9 0 0 -8 -6 -11 -16
-7 -8 3 -12 2 -9 -4 8 -13 -17 -50 -33 -50 -7 0 -10 -4 -7 -10 3 -5 19 -10 34
-10 55 0 86 -19 124 -77 20 -31 37 -60 37 -64 0 -5 5 -9 10 -9 11 0 -20 67
-52 112 -15 22 -17 32 -8 48 6 12 8 30 4 43 -5 12 -7 26 -6 30 1 5 -7 20 -18
34 l-20 26 0 -31z"/>
<path d="M1361 5244 c0 -11 3 -14 6 -6 3 7 2 16 -1 19 -3 4 -6 -2 -5 -13z"/>
<path d="M4467 5135 c-83 -29 -121 -89 -115 -180 7 -106 68 -155 193 -155 61
0 66 2 105 38 22 22 40 45 40 52 0 8 -15 -2 -33 -22 -36 -40 -100 -58 -136
-38 -26 13 -37 54 -25 89 10 26 34 38 132 62 53 12 82 40 82 77 0 72 -137 115
-243 77z m120 -68 c-4 -43 -10 -56 -38 -79 -18 -15 -38 -28 -45 -28 -11 0 -11
45 2 126 5 37 39 57 68 42 15 -8 18 -18 13 -61z"/>
<path d="M1294 5127 c-3 -9 -11 -14 -17 -10 -5 3 -7 1 -4 -4 10 -16 -4 -74
-16 -66 -6 3 -7 1 -3 -5 4 -6 -3 -21 -14 -32 -12 -12 -19 -25 -15 -28 4 -4 15
4 26 18 10 14 23 30 29 37 5 7 10 17 10 23 0 6 7 21 15 33 9 14 11 27 5 37 -8
12 -10 12 -16 -3z"/>
<path d="M1220 5105 c0 -14 2 -25 4 -25 2 0 6 11 8 25 3 14 1 25 -3 25 -5 0
-9 -11 -9 -25z"/>
<path d="M870 5091 c-19 -11 -60 -30 -90 -44 -32 -14 -70 -41 -88 -63 -54 -64
-102 -133 -102 -148 0 -7 -7 -19 -15 -26 -8 -7 -15 -21 -15 -31 0 -11 -4 -19
-10 -19 -5 0 -10 -13 -10 -28 0 -15 -4 -32 -9 -38 -5 -5 -13 -43 -19 -84 -10
-79 -3 -173 18 -228 6 -18 9 -43 6 -56 -4 -15 0 -28 10 -37 8 -7 14 -24 12
-39 -1 -18 7 -38 25 -59 15 -18 27 -44 27 -57 0 -14 7 -27 15 -30 8 -4 15 -11
15 -16 0 -11 31 -52 80 -105 17 -18 30 -38 30 -45 0 -7 28 -43 63 -79 65 -68
156 -129 193 -129 11 0 24 -4 30 -9 5 -5 19 -12 31 -16 18 -5 22 -3 17 9 -5
12 0 13 30 4 29 -9 35 -15 30 -31 -4 -14 -1 -18 13 -16 36 5 92 -13 114 -37
12 -13 32 -24 44 -24 11 0 26 -5 33 -12 18 -18 15 -3 -9 38 -22 41 -43 64 -56
64 -16 0 -70 55 -66 67 5 13 -37 56 -46 47 -3 -3 4 -14 17 -24 25 -21 28 -30
9 -30 -16 0 -67 55 -67 71 0 8 5 8 15 -1 9 -7 15 -8 15 -2 0 14 -26 22 -36 12
-5 -5 -15 -5 -24 0 -13 8 -12 10 3 10 23 0 22 13 -3 35 -11 10 -18 20 -15 23
9 9 -17 32 -35 32 -10 0 -20 -8 -22 -17 -3 -13 -9 -8 -22 19 -10 20 -24 42
-32 49 -10 8 -12 23 -8 50 5 27 3 39 -5 39 -8 0 -12 14 -10 39 2 21 -2 46 -9
54 -22 26 -35 126 -21 159 10 26 9 32 -12 54 -22 23 -22 25 -6 42 17 16 18 16
23 -6 11 -39 22 -24 16 23 -5 49 12 74 51 75 10 0 15 5 12 11 -4 6 -14 8 -22
5 -8 -3 -11 -2 -8 4 3 5 -10 30 -30 55 -128 169 -180 382 -96 398 19 4 32 16
40 35 7 16 23 34 37 40 31 15 32 42 2 42 -13 -1 -39 -9 -58 -19z m87 -1043
c-3 -8 -6 -5 -6 6 -1 11 2 17 5 13 3 -3 4 -12 1 -19z m100 -135 c-4 -3 3 -17
15 -30 23 -25 14 -31 -14 -9 -20 15 -24 46 -6 46 6 0 8 -3 5 -7z"/>
<path d="M1251 5094 c0 -11 3 -14 6 -6 3 7 2 16 -1 19 -3 4 -6 -2 -5 -13z"/>
<path d="M7105 5080 c-27 -3 -70 -17 -95 -30 -62 -33 -114 -39 -251 -29 -138
9 -204 -4 -238 -48 -27 -34 -28 -108 -2 -142 19 -24 19 -25 -15 -56 -35 -33
-42 -66 -25 -110 4 -10 3 -32 -3 -47 -15 -40 14 -95 60 -114 47 -20 53 -13 9
10 -19 11 -37 27 -40 37 -7 21 8 55 27 61 30 9 235 -7 251 -21 37 -30 11 -81
-49 -102 -27 -8 -27 -9 6 -4 104 15 151 135 83 207 -29 30 -70 40 -181 42 -50
2 -77 7 -88 17 -13 14 -13 17 -1 28 11 9 27 9 67 0 104 -22 201 6 226 66 20
50 17 79 -12 114 l-26 31 61 0 c34 0 61 -2 61 -4 0 -2 -7 -21 -16 -42 -22 -53
-13 -139 21 -209 46 -94 167 -181 328 -236 65 -22 78 -34 58 -55 -15 -14 -113
-257 -146 -359 -16 -49 -33 -96 -39 -103 -7 -10 -24 28 -63 145 -29 87 -53
166 -53 176 0 10 11 22 26 27 14 6 23 13 20 18 -5 8 -236 5 -244 -3 -3 -3 8
-10 25 -15 35 -13 37 -16 127 -260 l64 -176 7 -140 c8 -156 4 -181 -31 -194
-52 -20 -23 -30 91 -30 117 0 138 8 88 32 l-28 13 -3 160 c-2 92 2 179 8 205
25 102 171 478 201 516 6 8 29 7 81 -3 51 -10 122 -13 233 -10 181 4 271 24
385 83 250 130 272 404 38 462 -145 37 -337 -13 -476 -122 -69 -55 -176 -179
-216 -249 -16 -29 -34 -59 -41 -67 -6 -8 -15 -23 -19 -34 -8 -23 -45 -17 -137
20 -175 71 -266 170 -277 301 -5 70 7 113 47 156 38 41 73 57 145 64 80 7 152
-15 203 -63 46 -44 65 -40 21 4 -62 65 -151 93 -253 82z m-386 -92 c12 -33 1
-175 -15 -189 -7 -6 -25 -9 -41 -7 l-28 3 0 98 c0 104 5 117 53 117 14 0 26
-8 31 -22z m1386 -29 c88 -24 135 -86 135 -176 0 -135 -150 -258 -370 -303
-150 -31 -480 -23 -480 12 0 6 21 45 47 87 104 170 226 288 357 346 93 41 230
56 311 34z"/>
<path d="M5775 5070 c-47 -4 -60 -7 -40 -10 21 -4 29 -10 26 -20 -3 -8 -7 -74
-9 -147 l-4 -132 34 -21 c18 -11 42 -20 54 -20 35 0 83 21 88 38 12 47 16 92
7 92 -5 0 -11 -19 -13 -42 -2 -23 -9 -43 -16 -46 -11 -3 -12 23 -6 140 l7 144
-26 17 c-15 9 -28 16 -29 15 -2 -1 -34 -4 -73 -8z"/>
<path d="M5970 5049 c0 -5 14 -9 31 -9 26 0 29 -3 24 -21 -15 -45 -23 -244
-11 -269 14 -31 52 -45 98 -36 l35 6 8 128 c11 162 10 181 -4 195 -14 14 -181
20 -181 6z"/>
<path d="M6208 5040 c-26 -16 -22 -26 10 -25 l27 0 -4 -127 c-4 -144 4 -168
61 -187 74 -23 128 13 128 87 0 46 -18 40 -22 -8 -2 -22 -7 -39 -13 -38 -6 2
-9 49 -6 124 3 116 2 122 -21 149 -21 24 -34 29 -84 32 -32 2 -67 -1 -76 -7z"/>
<path d="M1790 5009 c0 -5 5 -7 10 -4 6 3 10 8 10 11 0 2 -4 4 -10 4 -5 0 -10
-5 -10 -11z"/>
<path d="M1725 4960 c-7 -12 2 -12 30 0 19 8 19 9 -2 9 -12 1 -25 -3 -28 -9z"/>
<path d="M1765 4950 c-16 -7 -17 -9 -3 -9 9 -1 20 4 23 9 7 11 7 11 -20 0z"/>
<path d="M1468 4675 c5 -28 22 -44 22 -21 0 21 -11 46 -20 46 -4 0 -5 -11 -2
-25z"/>
<path d="M5304 4676 c-92 -23 -146 -79 -148 -158 -1 -40 22 -78 68 -112 59
-44 214 -19 253 41 22 33 8 42 -17 11 -60 -77 -199 -78 -259 -2 -58 74 19 174
133 174 60 0 180 -41 291 -98 l90 -47 3 -454 c1 -314 -1 -458 -9 -467 -6 -7
-20 -14 -32 -16 -12 -2 -20 -7 -17 -13 3 -6 55 -10 125 -10 74 0 120 4 119 10
0 6 -9 12 -20 14 -10 2 -24 7 -30 12 -12 10 -32 839 -20 857 4 6 23 5 53 -5
27 -8 82 -15 123 -16 90 -1 155 26 203 86 40 49 26 60 -19 14 -74 -76 -190
-56 -459 78 -220 110 -309 131 -431 101z"/>
<path d="M1535 4632 c-5 -4 -19 -17 -29 -29 -17 -20 -17 -23 -3 -23 10 0 17 6
17 14 0 8 10 16 22 18 12 2 23 9 26 16 4 13 -17 16 -33 4z"/>
<path d="M1464 4595 c-7 -19 -14 -39 -14 -45 0 -17 18 -11 23 8 21 76 16 97
-9 37z"/>
<path d="M1740 4569 c-82 -16 -90 -19 -90 -38 0 -20 -33 -55 -43 -44 -4 3 -7
-2 -7 -11 0 -11 -14 -23 -39 -33 -41 -16 -63 -43 -35 -43 12 0 14 -10 12 -42
-3 -42 -4 -43 -35 -40 -36 4 -36 3 -24 -50 7 -29 5 -41 -9 -55 -9 -11 -20 -25
-23 -33 -5 -13 -6 -13 -6 -1 -1 8 9 25 21 38 12 13 17 23 10 23 -6 0 -13 9
-17 19 -4 12 -12 18 -20 15 -11 -4 -13 -18 -9 -51 6 -47 -6 -88 -37 -134 -10
-14 -16 -29 -13 -31 3 -3 -3 -21 -14 -39 -22 -40 -46 -149 -34 -161 4 -4 29
39 56 95 26 56 61 130 78 164 16 34 50 83 75 108 44 43 45 46 27 60 -15 12
-16 14 -3 15 8 0 19 -4 25 -10 10 -10 86 24 92 41 2 5 19 9 37 9 24 0 38 6 45
20 7 14 21 20 45 20 18 0 37 5 40 10 3 6 16 10 28 10 22 0 22 -1 -3 -21 -19
-16 -20 -18 -4 -10 11 5 43 30 71 55 27 25 62 48 77 52 27 6 31 29 5 29 -8 0
-21 8 -29 18 -9 11 -31 20 -55 21 -38 2 -49 5 -103 27 -26 10 -30 10 -92 -2z
m-94 -140 c11 -18 -13 -34 -31 -19 -10 8 -15 9 -15 1 0 -6 -12 -11 -27 -11
-31 0 -24 10 20 26 43 16 45 16 53 3z"/>
<path d="M972 4494 c-7 -8 -8 -14 -3 -14 10 0 25 19 20 25 -2 1 -10 -3 -17
-11z"/>
<path d="M2100 4506 c0 -2 7 -7 16 -10 8 -3 12 -2 9 4 -6 10 -25 14 -25 6z"/>
<path d="M6610 4480 c14 -4 39 -8 55 -9 23 0 26 2 15 9 -8 5 -33 9 -55 9 -35
-1 -37 -2 -15 -9z"/>
<path d="M965 4460 c-7 -12 2 -30 16 -30 12 0 12 27 0 35 -5 3 -12 1 -16 -5z"/>
<path d="M961 4364 c0 -11 3 -14 6 -6 3 7 2 16 -1 19 -3 4 -6 -2 -5 -13z"/>
<path d="M1390 4361 c0 -5 -3 -18 -6 -28 -5 -15 -4 -16 5 -3 10 13 13 13 22
-2 14 -25 24 -22 25 6 1 17 -2 23 -12 19 -8 -3 -14 0 -14 6 0 6 -4 11 -10 11
-5 0 -10 -4 -10 -9z"/>
<path d="M5393 4336 c-70 -33 -108 -96 -108 -181 0 -79 27 -134 114 -227 132
-144 160 -192 160 -278 0 -48 -9 -66 -49 -93 -53 -37 -121 -9 -157 65 -13 25
-23 52 -23 61 0 23 -11 47 -21 47 -5 0 -9 -45 -9 -100 l0 -100 28 -7 c15 -3
66 -7 113 -7 81 -1 87 1 121 29 50 41 78 109 78 185 0 83 -36 150 -141 260
-101 108 -133 166 -127 232 7 69 36 98 99 98 43 0 51 -4 75 -35 15 -19 29 -49
33 -67 4 -17 12 -33 19 -36 9 -3 12 16 12 70 0 40 -4 78 -8 85 -4 6 -41 15
-82 18 -66 5 -81 3 -127 -19z"/>
<path d="M6066 4339 c-74 -39 -125 -123 -151 -247 -52 -252 42 -531 192 -571
58 -16 126 7 173 59 116 128 145 428 61 615 -66 144 -172 200 -275 144z m137
-39 c14 -16 30 -44 36 -62 32 -100 42 -421 16 -542 -26 -123 -73 -172 -138
-142 -65 32 -85 100 -94 331 -7 197 6 313 43 386 26 51 33 57 81 58 23 1 38
-7 56 -29z"/>
<path d="M6400 4340 c0 -5 11 -12 24 -16 14 -3 27 -12 30 -20 4 -11 8 -384 6
-682 0 -46 -3 -54 -25 -64 -47 -21 -25 -28 90 -28 63 0 115 4 115 8 0 4 -13
13 -30 19 l-30 11 -1 161 c-1 89 -2 167 -3 174 -1 6 10 12 23 12 32 0 79 -68
123 -178 129 -320 215 -414 388 -425 63 -4 83 -1 123 18 42 20 107 82 107 102
0 17 -29 7 -35 -12 -21 -67 -161 -89 -243 -37 -57 37 -90 85 -185 272 -63 125
-92 172 -137 218 l-57 58 31 13 c53 22 104 82 122 144 31 104 -12 204 -104
243 -36 16 -69 19 -188 19 -87 0 -144 -4 -144 -10z m278 -36 c13 -9 30 -31 38
-49 17 -42 18 -176 1 -225 -15 -43 -70 -82 -112 -78 l-30 3 -3 182 c-2 167 -1
182 15 186 25 7 64 -1 91 -19z"/>
<path d="M970 4015 c0 -8 6 -15 13 -15 7 0 17 -10 22 -22 11 -26 51 -36 69
-18 8 10 5 11 -17 8 -22 -4 -31 0 -44 23 -19 32 -43 45 -43 24z"/>
</g>
</svg>
